<?xml version="1.0" encoding="UTF-8" standalone="no"?>
<!-- Created with Inkscape (http://www.inkscape.org/) -->

<svg
   xmlns:dc="http://purl.org/dc/elements/1.1/"
   xmlns:cc="http://creativecommons.org/ns#"
   xmlns:rdf="http://www.w3.org/1999/02/22-rdf-syntax-ns#"
   xmlns:svg="http://www.w3.org/2000/svg"
   xmlns="http://www.w3.org/2000/svg"
   xmlns:sodipodi="http://sodipodi.sourceforge.net/DTD/sodipodi-0.dtd"
   xmlns:inkscape="http://www.inkscape.org/namespaces/inkscape"
   width="1024"
   height="1024"
   id="svg2"
   version="1.1"
   inkscape:version="0.48.4 r9939"
   sodipodi:docname="example.svg"
   inkscape:export-filename="/home/adrienpilleboue/Projects/teeworlds-modapi/datasrc/modapi/example.png"
   inkscape:export-xdpi="90"
   inkscape:export-ydpi="90">
  <defs
     id="defs4" />
  <sodipodi:namedview
     id="base"
     pagecolor="#ffffff"
     bordercolor="#666666"
     borderopacity="1.0"
     inkscape:pageopacity="0.0"
     inkscape:pageshadow="2"
     inkscape:zoom="5.6"
     inkscape:cx="48.108014"
     inkscape:cy="983.40422"
     inkscape:document-units="px"
     inkscape:current-layer="layer1"
     showgrid="true"
     inkscape:window-width="1855"
     inkscape:window-height="1056"
     inkscape:window-x="65"
     inkscape:window-y="24"
     inkscape:window-maximized="1"
     showguides="false">
    <inkscape:grid
       type="xygrid"
       id="grid3753"
       empspacing="32"
       visible="true"
       enabled="true"
       snapvisiblegridlinesonly="true"
       spacingx="1px"
       spacingy="1px" />
  </sodipodi:namedview>
  <metadata
     id="metadata7">
    <rdf:RDF>
      <cc:Work
         rdf:about="">
        <dc:format>image/svg+xml</dc:format>
        <dc:type
           rdf:resource="http://purl.org/dc/dcmitype/StillImage" />
        <dc:title></dc:title>
      </cc:Work>
    </rdf:RDF>
  </metadata>
  <g
     inkscape:label="Layer 1"
     inkscape:groupmode="layer"
     id="layer1"
     transform="translate(0,-28.362183)">
    <path
       style="fill:#000000;fill-opacity:1;stroke:#000000;stroke-width:4;stroke-miterlimit:4;stroke-opacity:1;stroke-dasharray:none"
       d="m 30.954001,30.915481 c -5.525514,0 -10.693668,1.583467 -15.05603,4.317771 0.04687,0.969546 0.158484,2.984341 0.158484,2.984341 l -3.518356,-0.507972 c -6.1108065,5.217661 -9.9845257,12.979175 -9.9845257,21.652352 0,8.55044 3.7693227,16.215494 9.7309507,21.430115 5.182265,5.543154 12.581515,9.016522 20.761473,9.016522 15.685123,0 28.400428,-12.735928 28.400428,-28.446492 0,-8.620014 -3.843386,-16.340434 -9.889435,-21.557108 -5.175628,-5.467342 -12.487094,-8.889529 -20.602989,-8.889529 z"
       id="path3885"
       inkscape:connector-curvature="0" />
    <path
       style="fill:#b30005;fill-opacity:1;stroke:none"
       d="M 96 4 C 89.372583 4.0000001 84 9.372583 84 16 C 84 22.627417 89.372583 28 96 28 L 160 28 C 162.20914 28 164 29.790861 164 32 C 164 34.209139 162.20914 36 160 36 C 153.37258 36 148 41.372583 148 48 C 148 54.627417 153.37258 60 160 60 C 175.46397 60 188 47.463973 188 32 C 188 16.536027 175.46397 4 160 4 L 96 4 z "
       transform="translate(0,28.362183)"
       id="rect3817" />
    <path
       sodipodi:type="arc"
       style="fill:#976203;fill-opacity:1;stroke:none"
       id="path3759"
       sodipodi:cx="32"
       sodipodi:cy="32"
       sodipodi:rx="28"
       sodipodi:ry="28"
       d="M 60,32 A 28,28 0 1 1 4,32 28,28 0 1 1 60,32 z"
       transform="matrix(1,0,0,1.0005438,1.0535715,29.325088)" />
    <path
       transform="matrix(1,0,0,1.0005438,1.0535715,29.325088)"
       d="M 60,32 A 28,28 0 1 1 4,32 28,28 0 1 1 60,32 z"
       sodipodi:ry="28"
       sodipodi:rx="28"
       sodipodi:cy="32"
       sodipodi:cx="32"
       id="path3761"
       style="fill:#976203;fill-opacity:1;stroke:none"
       sodipodi:type="arc" />
    <path
       style="fill:#cc9228;fill-opacity:1;stroke:none"
       d="m 31,31.361909 c -5.447608,0 -10.542895,1.559462 -14.84375,4.252311 0.04621,0.954847 0.15625,2.939097 0.15625,2.939097 L 12.84375,38.053046 C 6.8191022,43.191604 3,50.835448 3,59.377135 3,74.849517 15.536027,87.39236 31,87.39236 c 15.463973,0 28,-12.542843 28,-28.015225 C 59,43.904753 46.463973,31.361909 31,31.361909 z"
       id="path3757"
       inkscape:connector-curvature="0" />
    <path
       style="fill:#f6da7e;fill-opacity:1;stroke:none"
       d="m 31.125,35.958157 c -12.921671,0 -23.40625,10.49028 -23.40625,23.418978 0,4.393934 1.2063811,8.491963 3.3125,12.006525 L 15,69.382572 12.09375,73.009544 c 4.24806,5.926826 11.189864,9.786568 19.03125,9.786568 12.725076,0 23.094186,-10.168094 23.40625,-22.824904 L 51,59.377135 c 0,0 1.897326,-1.396377 3.40625,-2.282491 -0.638806,-6.642592 -4.049955,-12.476126 -9.0625,-16.32137 L 41,43.368434 42.71875,39.053589 C 39.299328,37.094999 35.348708,35.958157 31.125,35.958157 z"
       id="path3763"
       inkscape:connector-curvature="0" />
    <path
       sodipodi:type="arc"
       style="fill:#aa2e2c;fill-opacity:1;stroke:none"
       id="path3765"
       sodipodi:cx="32"
       sodipodi:cy="32"
       sodipodi:rx="28"
       sodipodi:ry="28"
       d="M 60,32 A 28,28 0 1 1 4,32 28,28 0 1 1 60,32 z"
       transform="matrix(0.21378715,0,0,0.2139034,24.28508,52.532227)" />
    <path
       transform="matrix(0.52720502,0,0,0.5274917,14.255708,42.497401)"
       d="M 60,32 A 28,28 0 1 1 4,32 28,28 0 1 1 60,32 z"
       sodipodi:ry="28"
       sodipodi:rx="28"
       sodipodi:cy="32"
       sodipodi:cx="32"
       id="path3767"
       style="fill:none;stroke:#aa2e2c;stroke-width:9.48139954;stroke-miterlimit:4;stroke-opacity:1;stroke-dasharray:none"
       sodipodi:type="arc" />
    <path
       style="fill:#ffffff;fill-opacity:1;stroke:none"
       d="m 96,32.362183 c 4,0 13,24 17,24 l 12,0 c -4,0 -13,-24 -17,-24 z"
       id="path3848"
       inkscape:connector-curvature="0"
       sodipodi:nodetypes="ccccc" />
    <path
       sodipodi:nodetypes="ccccc"
       inkscape:connector-curvature="0"
       id="path3866"
       d="m 128,32.362183 c 4,0 13,24 17,24 l 12,0 c -4,0 -13,-24 -17,-24 z"
       style="fill:#ffffff;fill-opacity:1;stroke:none" />
    <path
       style="fill:#ffffff;fill-opacity:0.2557078;stroke:none"
       d="M 96 4 C 91.004775 4.0000001 86.712581 7.0651284 84.90625 11.40625 L 178.9375 11.40625 C 178.61948 11.113556 178.3001 10.840396 177.96875 10.5625 C 177.6444 10.289747 177.33654 10.039385 177 9.78125 C 176.66346 9.523115 176.317 9.2742575 175.96875 9.03125 C 175.6205 8.7882425 175.26573 8.5398706 174.90625 8.3125 C 174.77938 8.2322515 174.65948 8.1407577 174.53125 8.0625 C 174.29969 7.9218021 174.0484 7.790356 173.8125 7.65625 C 173.65533 7.5665793 173.5028 7.4616954 173.34375 7.375 C 173.12917 7.2584315 172.90543 7.1423251 172.6875 7.03125 C 172.49954 6.9351391 172.31538 6.8419541 172.125 6.75 C 171.54457 6.4696468 170.9456 6.2093081 170.34375 5.96875 C 169.94412 5.8090202 169.53347 5.6727962 169.125 5.53125 C 168.85784 5.4386728 168.58327 5.3346186 168.3125 5.25 C 168.16637 5.2045497 168.02214 5.1681099 167.875 5.125 C 167.58242 5.0387671 167.2965 4.9518096 167 4.875 C 166.87468 4.8427578 166.75099 4.8117943 166.625 4.78125 C 166.30345 4.7027763 165.98209 4.6297106 165.65625 4.5625 C 165.5546 4.5416993 165.4458 4.5196958 165.34375 4.5 C 164.98336 4.4299963 164.61524 4.3684691 164.25 4.3125 C 164.17603 4.3011971 164.10541 4.2919727 164.03125 4.28125 C 163.64495 4.2251889 163.26632 4.1962878 162.875 4.15625 C 162.48648 4.1167936 162.08055 4.0859051 161.6875 4.0625 C 161.60343 4.0575053 161.52177 4.0354975 161.4375 4.03125 C 161.41676 4.0301987 161.39575 4.0322561 161.375 4.03125 C 160.9235 4.0095011 160.457 4 160 4 L 96 4 z "
       transform="translate(0,28.362183)"
       id="rect3870" />
    <rect
       style="fill:#ff0000;fill-opacity:0.53881273;stroke:none"
       id="rect3890"
       width="32"
       height="32"
       x="0"
       y="92.362183" />
    <rect
       style="fill:#0200ff;fill-opacity:0.53881273;stroke:none"
       id="rect3892"
       width="32"
       height="32"
       x="32"
       y="92.362183" />
    <rect
       style="fill:#1dff00;fill-opacity:0.53881273;stroke:none"
       id="rect3894"
       width="32"
       height="32"
       x="64"
       y="92.362183" />
  </g>
</svg>
