<?xml version="1.0" encoding="UTF-8" standalone="no"?>
<!-- Created with Inkscape (http://www.inkscape.org/) -->

<svg
   xmlns:dc="http://purl.org/dc/elements/1.1/"
   xmlns:cc="http://creativecommons.org/ns#"
   xmlns:rdf="http://www.w3.org/1999/02/22-rdf-syntax-ns#"
   xmlns:svg="http://www.w3.org/2000/svg"
   xmlns="http://www.w3.org/2000/svg"
   xmlns:sodipodi="http://sodipodi.sourceforge.net/DTD/sodipodi-0.dtd"
   xmlns:inkscape="http://www.inkscape.org/namespaces/inkscape"
   width="1024"
   height="1024"
   id="svg2"
   version="1.1"
   inkscape:version="0.48.4 r9939"
   sodipodi:docname="example.svg"
   inkscape:export-filename="/home/adrienpilleboue/Projects/teeworlds-modapi/datasrc/modapi/example.png"
   inkscape:export-xdpi="90"
   inkscape:export-ydpi="90">
  <defs
     id="defs4" />
  <sodipodi:namedview
     id="base"
     pagecolor="#ffffff"
     bordercolor="#666666"
     borderopacity="1.0"
     inkscape:pageopacity="0.0"
     inkscape:pageshadow="2"
     inkscape:zoom="3.959798"
     inkscape:cx="100.39389"
     inkscape:cy="973.13908"
     inkscape:document-units="px"
     inkscape:current-layer="layer1"
     showgrid="true"
     inkscape:window-width="1855"
     inkscape:window-height="1056"
     inkscape:window-x="65"
     inkscape:window-y="24"
     inkscape:window-maximized="1"
     showguides="false">
    <inkscape:grid
       type="xygrid"
       id="grid3753"
       empspacing="32"
       visible="true"
       enabled="true"
       snapvisiblegridlinesonly="true"
       spacingx="1px"
       spacingy="1px" />
  </sodipodi:namedview>
  <metadata
     id="metadata7">
    <rdf:RDF>
      <cc:Work
         rdf:about="">
        <dc:format>image/svg+xml</dc:format>
        <dc:type
           rdf:resource="http://purl.org/dc/dcmitype/StillImage" />
        <dc:title></dc:title>
      </cc:Work>
    </rdf:RDF>
  </metadata>
  <g
     inkscape:label="Layer 1"
     inkscape:groupmode="layer"
     id="layer1"
     transform="translate(0,-28.362183)">
    <path
       style="fill:#b30005;fill-opacity:1;stroke:none"
       d="M 96 4 C 89.372583 4.0000001 84 9.372583 84 16 C 84 22.627417 89.372583 28 96 28 L 160 28 C 162.20914 28 164 29.790861 164 32 C 164 34.209139 162.20914 36 160 36 C 153.37258 36 148 41.372583 148 48 C 148 54.627417 153.37258 60 160 60 C 175.46397 60 188 47.463973 188 32 C 188 16.536027 175.46397 4 160 4 L 96 4 z "
       transform="translate(0,28.362183)"
       id="rect3817" />
    <path
       sodipodi:type="arc"
       style="fill:#976203;fill-opacity:1;stroke:none"
       id="path3759"
       sodipodi:cx="32"
       sodipodi:cy="32"
       sodipodi:rx="28"
       sodipodi:ry="28"
       d="M 60,32 A 28,28 0 1 1 4,32 28,28 0 1 1 60,32 z"
       transform="translate(2.0535715,30.326469)" />
    <path
       transform="translate(2.0535715,30.326469)"
       d="M 60,32 A 28,28 0 1 1 4,32 28,28 0 1 1 60,32 z"
       sodipodi:ry="28"
       sodipodi:rx="28"
       sodipodi:cy="32"
       sodipodi:cx="32"
       id="path3761"
       style="fill:#976203;fill-opacity:1;stroke:none"
       sodipodi:type="arc" />
    <path
       style="fill:#cc9228;fill-opacity:1;stroke:none;stroke-opacity:1"
       d="M 32 4 C 26.552392 4 21.457105 5.5586144 17.15625 8.25 C 17.202461 9.2043281 17.3125 11.1875 17.3125 11.1875 L 13.84375 10.6875 C 7.8191022 15.823266 4 23.462955 4 32 C 4 47.463973 16.536027 60 32 60 C 47.463973 60 60 47.463973 60 32 C 60 16.536027 47.463973 4 32 4 z "
       transform="translate(0,28.362183)"
       id="path3757" />
    <path
       style="fill:#f6da7e;fill-opacity:1;stroke:none"
       d="M 32.125 8.59375 C 19.203329 8.59375 8.71875 19.078329 8.71875 32 C 8.71875 36.391546 9.9251311 40.487348 12.03125 44 L 16 42 L 13.09375 45.625 C 17.34181 51.548605 24.283614 55.40625 32.125 55.40625 C 44.850076 55.40625 55.219186 45.243682 55.53125 32.59375 L 52 32 C 52 32 53.897326 30.604382 55.40625 29.71875 C 54.767444 23.079768 51.356295 17.249404 46.34375 13.40625 L 42 16 L 43.71875 11.6875 C 40.299328 9.7299736 36.348708 8.59375 32.125 8.59375 z "
       transform="translate(0,28.362183)"
       id="path3763" />
    <path
       sodipodi:type="arc"
       style="fill:#aa2e2c;fill-opacity:1;stroke:none"
       id="path3765"
       sodipodi:cx="32"
       sodipodi:cy="32"
       sodipodi:rx="28"
       sodipodi:ry="28"
       d="M 60,32 A 28,28 0 1 1 4,32 28,28 0 1 1 60,32 z"
       transform="matrix(0.21378715,0,0,0.21378715,25.28508,53.520995)" />
    <path
       transform="matrix(0.52720502,0,0,0.52720502,15.255708,43.491623)"
       d="M 60,32 A 28,28 0 1 1 4,32 28,28 0 1 1 60,32 z"
       sodipodi:ry="28"
       sodipodi:rx="28"
       sodipodi:cy="32"
       sodipodi:cx="32"
       id="path3767"
       style="fill:none;stroke:#aa2e2c;stroke-width:9.48397732;stroke-miterlimit:4;stroke-opacity:1;stroke-dasharray:none"
       sodipodi:type="arc" />
    <path
       style="fill:#ffffff;fill-opacity:1;stroke:none"
       d="m 96,32.362183 c 4,0 13,24 17,24 l 12,0 c -4,0 -13,-24 -17,-24 z"
       id="path3848"
       inkscape:connector-curvature="0"
       sodipodi:nodetypes="ccccc" />
    <path
       sodipodi:nodetypes="ccccc"
       inkscape:connector-curvature="0"
       id="path3866"
       d="m 128,32.362183 c 4,0 13,24 17,24 l 12,0 c -4,0 -13,-24 -17,-24 z"
       style="fill:#ffffff;fill-opacity:1;stroke:none" />
    <path
       style="fill:#ffffff;fill-opacity:0.2557078;stroke:none"
       d="M 96 4 C 91.004775 4.0000001 86.712581 7.0651284 84.90625 11.40625 L 178.9375 11.40625 C 178.61948 11.113556 178.3001 10.840396 177.96875 10.5625 C 177.6444 10.289747 177.33654 10.039385 177 9.78125 C 176.66346 9.523115 176.317 9.2742575 175.96875 9.03125 C 175.6205 8.7882425 175.26573 8.5398706 174.90625 8.3125 C 174.77938 8.2322515 174.65948 8.1407577 174.53125 8.0625 C 174.29969 7.9218021 174.0484 7.790356 173.8125 7.65625 C 173.65533 7.5665793 173.5028 7.4616954 173.34375 7.375 C 173.12917 7.2584315 172.90543 7.1423251 172.6875 7.03125 C 172.49954 6.9351391 172.31538 6.8419541 172.125 6.75 C 171.54457 6.4696468 170.9456 6.2093081 170.34375 5.96875 C 169.94412 5.8090202 169.53347 5.6727962 169.125 5.53125 C 168.85784 5.4386728 168.58327 5.3346186 168.3125 5.25 C 168.16637 5.2045497 168.02214 5.1681099 167.875 5.125 C 167.58242 5.0387671 167.2965 4.9518096 167 4.875 C 166.87468 4.8427578 166.75099 4.8117943 166.625 4.78125 C 166.30345 4.7027763 165.98209 4.6297106 165.65625 4.5625 C 165.5546 4.5416993 165.4458 4.5196958 165.34375 4.5 C 164.98336 4.4299963 164.61524 4.3684691 164.25 4.3125 C 164.17603 4.3011971 164.10541 4.2919727 164.03125 4.28125 C 163.64495 4.2251889 163.26632 4.1962878 162.875 4.15625 C 162.48648 4.1167936 162.08055 4.0859051 161.6875 4.0625 C 161.60343 4.0575053 161.52177 4.0354975 161.4375 4.03125 C 161.41676 4.0301987 161.39575 4.0322561 161.375 4.03125 C 160.9235 4.0095011 160.457 4 160 4 L 96 4 z "
       transform="translate(0,28.362183)"
       id="rect3870" />
  </g>
</svg>
